# xmcd
#
# Track frame offsets:
#	150
#	31882
#	86793
#	128306
#	163866
#	181990
#	201789
#	217487
#	254179
#
# Disc length: 3752 seconds
#
# Revision: 1
# Processed by: cddbd v1.5.1PL2 Copyright (c) Steve Scherf et al.
# Submitted via: audiograbber 1.83.01
#
DISCID=850ea609
DTITLE=Muddy Waters - Live In Switzerland 1976 [CD2] [Jazz Helvet][France]
DYEAR=1976
DGENRE=Blues
TTITLE0=Nothing but soul
TTITLE1=I got a mind to travel
TTITLE2=After hours - band introduction
TTITLE3=Stormy monday blues
TTITLE4=Walking blues
TTITLE5=Rollin' and tumblin'
TTITLE6=I got my mojo working
TTITLE7=Take a little walk with me
TTITLE8=For you my love
EXTD=
EXTT0=
EXTT1=
EXTT2=
EXTT3=
EXTT4=
EXTT5=
EXTT6=
EXTT7=
EXTT8=
PLAYORDER=
